HIERARCHY
ROOT Hips
{
	OFFSET 0.000000 0.000000 0.000000
	CHANNELS 6 Xposition Yposition Zposition Yrotation Xrotation Zrotation
	JOINT Chest
	{
		OFFSET 0.000000 -0.009281 11.569106
		CHANNELS 3 Yrotation Xrotation Zrotation
		JOINT Chest2
		{
			OFFSET -0.000000 0.016865 9.269641
			CHANNELS 3 Yrotation Xrotation Zrotation
			JOINT Chest3
			{
				OFFSET -0.000000 0.000001 8.374491
				CHANNELS 3 Yrotation Xrotation Zrotation
				JOINT Chest4
				{
					OFFSET -0.000000 0.000001 8.374493
					CHANNELS 3 Yrotation Xrotation Zrotation
					JOINT Neck
					{
						OFFSET -0.000000 0.000002 12.152554
						CHANNELS 3 Yrotation Xrotation Zrotation
						JOINT Head
						{
							OFFSET -0.000000 0.040101 7.802319
							CHANNELS 3 Yrotation Xrotation Zrotation
							End Site
							{
								OFFSET -0.000000 0.020947 14.853096
							}
						}
					}
					JOINT RightCollar
					{
						OFFSET 2.894404 0.000001 6.791374
						CHANNELS 3 Yrotation Xrotation Zrotation
						JOINT RightShoulder
						{
							OFFSET 13.574684 0.000001 0.000000
							CHANNELS 3 Yrotation Xrotation Zrotation
							JOINT RightElbow
							{
								OFFSET 23.923903 0.000002 0.000000
								CHANNELS 3 Yrotation Xrotation Zrotation
								JOINT RightWrist
								{
									OFFSET 19.846718 0.012767 0.000000
									CHANNELS 3 Yrotation Xrotation Zrotation
									End Site
									{
										OFFSET 14.973145 0.000001 0.000000
									}
								}
							}
						}
					}
					JOINT LeftCollar
					{
						OFFSET -2.894404 0.000001 6.791374
						CHANNELS 3 Yrotation Xrotation Zrotation
						JOINT LeftShoulder
						{
							OFFSET -13.574684 -0.000001 0.000000
							CHANNELS 3 Yrotation Xrotation Zrotation
							JOINT LeftElbow
							{
								OFFSET -23.923903 -0.000002 0.000000
								CHANNELS 3 Yrotation Xrotation Zrotation
								JOINT LeftWrist
								{
									OFFSET -19.846718 0.012763 0.000000
									CHANNELS 3 Yrotation Xrotation Zrotation
									End Site
									{
										OFFSET -14.973145 -0.000001 0.000000
									}
								}
							}
						}
					}
				}
			}
		}
	}
	JOINT RightHip
	{
		OFFSET 9.469263 0.004643 0.045487
		CHANNELS 3 Yrotation Xrotation Zrotation
		JOINT RightKnee
		{
			OFFSET 0.000000 0.002661 -40.478676
			CHANNELS 3 Yrotation Xrotation Zrotation
			JOINT RightAnkle
			{
				OFFSET 0.000000 0.049106 -35.224068
				CHANNELS 3 Yrotation Xrotation Zrotation
				JOINT RightToe
				{
					OFFSET -0.000001 12.539529 -6.151390
					CHANNELS 3 Yrotation Xrotation Zrotation
					End Site
					{
						OFFSET -0.000001 5.044994 -1.291870
					}
				}
			}
		}
	}
	JOINT LeftHip
	{
		OFFSET -9.469263 0.004641 0.045487
		CHANNELS 3 Yrotation Xrotation Zrotation
		JOINT LeftKnee
		{
			OFFSET 0.000000 0.002661 -40.478676
			CHANNELS 3 Yrotation Xrotation Zrotation
			JOINT LeftAnkle
			{
				OFFSET 0.000000 0.049106 -35.224068
				CHANNELS 3 Yrotation Xrotation Zrotation
				JOINT LeftToe
				{
					OFFSET -0.000001 12.539529 -6.151390
					CHANNELS 3 Yrotation Xrotation Zrotation
					End Site
					{
						OFFSET -0.000001 5.044994 -1.291870
					}
				}
			}
		}
	}
}
MOTION
Frames: 15
Frame Time: 0.016667
11.005757 5.876486 83.120491 -7.749154 -1.186435 -104.251834 4.803385 -2.417847 -0.139611 2.142661 -1.072086 -0.070121 2.142660 -1.072086 -0.070122 1.606826 -0.804323 -0.048831 -4.756736 -15.499542 13.640342 -3.883658 7.123933 23.691708 9.115202 6.630384 -4.350647 57.422343 17.668156 3.312115 -14.727097 -28.372630 18.734919 -54.084450 18.286635 36.749659 -7.222898 4.327635 -12.380362 -73.033772 34.265891 -66.962881 -47.696929 22.806318 -75.206537 63.661632 41.335151 18.635338 -1.702302 -10.297172 -2.040658 1.413114 -3.806948 -1.752945 -1.077250 5.695074 -4.384397 -0.005660 0.008286 0.010939 -2.601794 -8.555026 -3.433130 0.624439 -5.046928 1.490811 1.010777 5.528973 0.756254 -0.016588 -0.068774 -0.007252 
11.040299 5.837015 83.118828 -7.723065 -1.173892 -104.217171 4.752180 -2.421700 -0.133793 2.120745 -1.073657 -0.066870 2.120744 -1.073657 -0.066871 1.590395 -0.805487 -0.046426 -4.668051 -15.412266 13.726475 -3.676048 7.262390 23.892290 9.137481 6.741408 -4.426649 57.319487 17.630935 2.846629 -14.228138 -28.125915 18.280089 -52.559822 17.762073 36.539125 -7.178370 4.434429 -12.410231 -73.487972 34.576190 -67.399391 -47.446862 22.695832 -74.745130 63.124117 42.386136 19.167304 -1.664352 -10.347521 -2.093424 1.389208 -3.719195 -1.727587 -1.084521 5.691591 -4.420385 -0.007769 0.006361 0.009824 -2.581926 -8.577545 -3.471975 0.630858 -5.004216 1.494520 0.992326 5.533648 0.749692 -0.018366 -0.065322 -0.006955 
11.074868 5.796812 83.117157 -7.701727 -1.167318 -104.176593 4.706322 -2.418312 -0.130332 2.098495 -1.072995 -0.063368 2.098493 -1.072995 -0.063370 1.573712 -0.804975 -0.043843 -4.574687 -15.335443 13.805645 -3.463553 7.381069 24.081136 9.150953 6.875569 -4.500213 57.253159 17.545018 2.394086 -13.786217 -27.763490 17.850517 -51.019379 17.259226 36.271067 -7.146094 4.526184 -12.436633 -73.778932 34.820547 -67.701108 -47.451667 22.686270 -74.405035 62.550811 43.445556 19.706969 -1.622117 -10.400346 -2.134440 1.366126 -3.632628 -1.721499 -1.088868 5.686403 -4.448643 -0.010539 0.005013 0.008958 -2.556317 -8.610055 -3.521192 0.634836 -4.957758 1.500490 0.977452 5.527478 0.748242 -0.020916 -0.051684 -0.006613 
11.109530 5.759127 83.114830 -7.680097 -1.156407 -104.129280 4.658879 -2.413940 -0.128700 2.078209 -1.071233 -0.062144 2.078208 -1.071232 -0.062144 1.558501 -0.803646 -0.042966 -4.485086 -15.262877 13.876728 -3.261287 7.492887 24.253457 9.171550 6.975341 -4.545688 57.154241 17.555920 1.927287 -13.376426 -27.357344 17.563188 -49.385782 16.868820 35.977215 -7.109574 4.585803 -12.438945 -73.923131 35.000912 -67.889874 -47.511154 22.790456 -74.125939 61.935793 44.480214 20.278558 -1.585274 -10.457733 -2.168901 1.346045 -3.542944 -1.723237 -1.093693 5.685217 -4.472413 -0.012454 0.003213 0.008300 -2.537604 -8.635765 -3.562693 0.645833 -4.915348 1.491572 0.961681 5.530710 0.748201 -0.023893 -0.049608 -0.006298 
11.141862 5.721675 83.111534 -7.653971 -1.146336 -104.075369 4.615509 -2.408536 -0.127378 2.059631 -1.068823 -0.061544 2.059630 -1.068823 -0.061545 1.544570 -0.801836 -0.042555 -4.399865 -15.191198 13.939074 -3.070114 7.604300 24.408053 9.180688 7.029556 -4.591969 57.014072 17.656217 1.515281 -12.972609 -26.982415 17.360574 -47.718007 16.569882 35.780342 -7.070173 4.641665 -12.419959 -73.969105 35.146849 -67.995134 -47.421129 22.979775 -73.764363 61.197211 45.381201 20.754814 -1.547514 -10.509935 -2.204772 1.331304 -3.453716 -1.736309 -1.100558 5.685048 -4.489082 -0.014196 0.000741 0.008745 -2.513205 -8.655103 -3.584692 0.653499 -4.872772 1.457030 0.949994 5.534823 0.744200 -0.027290 -0.050622 -0.006055 
11.171468 5.682653 83.107872 -7.621742 -1.137718 -104.021315 4.571823 -2.404632 -0.131324 2.040749 -1.067120 -0.062841 2.040749 -1.067120 -0.062841 1.530408 -0.800560 -0.043568 -4.314311 -15.115361 13.998917 -2.878302 7.723197 24.558792 9.185835 7.140074 -4.652556 56.846968 17.689101 1.137256 -12.563761 -26.556640 17.161226 -45.846111 16.314626 35.608737 -7.010908 4.696167 -12.383931 -74.008440 35.302082 -68.078019 -47.273997 23.236761 -73.310442 60.099702 46.433419 21.149729 -1.503634 -10.558062 -2.243678 1.312518 -3.356781 -1.738809 -1.107971 5.677785 -4.500854 -0.015079 -0.000552 0.010276 -2.480082 -8.671338 -3.581882 0.656093 -4.820502 1.402335 0.939981 5.534416 0.732947 -0.030272 -0.053375 -0.005979 
11.199696 5.642383 83.104370 -7.586931 -1.127527 -103.971209 4.524315 -2.399237 -0.139381 2.019768 -1.064506 -0.066434 2.019768 -1.064506 -0.066436 1.514666 -0.798608 -0.046307 -4.222320 -15.040949 14.058296 -2.674746 7.838116 24.711230 9.172460 7.248059 -4.719608 56.701089 17.687475 0.804203 -12.095968 -26.067753 16.963471 -43.907806 15.879623 35.299077 -6.966326 4.729212 -12.379867 -74.080273 35.537987 -68.170561 -47.286503 23.507566 -72.845320 58.915566 47.617709 21.599671 -1.459978 -10.597907 -2.272189 1.291893 -3.269063 -1.757153 -1.110951 5.675459 -4.495651 -0.018015 -0.001874 0.010230 -2.449276 -8.685338 -3.580169 0.663098 -4.766413 1.333390 0.924442 5.531783 0.740342 -0.029893 -0.055173 -0.005050 
11.225625 5.604439 83.101402 -7.551706 -1.120320 -103.941996 4.467330 -2.391519 -0.133103 1.995218 -1.061390 -0.063484 1.995219 -1.061390 -0.063483 1.496259 -0.796261 -0.044147 -4.113302 -14.972797 14.108420 -2.443755 7.939253 24.852453 9.177108 7.314362 -4.757764 56.554301 17.741456 0.518148 -11.640808 -25.486941 16.738355 -41.757823 15.370898 34.945864 -6.942048 4.772514 -12.412494 -74.224806 35.823478 -68.297725 -47.398818 23.801918 -72.332427 57.431297 48.740571 21.984352 -1.419410 -10.629467 -2.281593 1.277365 -3.188373 -1.768978 -1.115855 5.670193 -4.528055 -0.022676 -0.001311 0.008392 -2.418594 -8.704047 -3.580844 0.663969 -4.701471 1.303610 0.911608 5.523283 0.742803 -0.029242 -0.056195 -0.003800 
11.249143 5.564302 83.098907 -7.516976 -1.112614 -103.897996 4.407000 -2.381904 -0.134180 1.968416 -1.057479 -0.064457 1.968416 -1.057480 -0.064455 1.476158 -0.793327 -0.044936 -3.998321 -14.910634 14.155722 -2.203525 8.028285 24.990312 9.174973 7.371266 -4.802506 56.454054 17.812257 0.316815 -11.302570 -25.073136 16.472707 -39.867090 14.810644 34.639158 -6.904126 4.806139 -12.415475 -74.431959 36.110117 -68.472025 -47.473746 24.141976 -71.768629 55.758844 49.631822 22.260642 -1.378002 -10.660811 -2.332970 1.257781 -3.109653 -1.752735 -1.116101 5.664208 -4.519025 -0.026321 0.000554 0.009122 -2.381473 -8.722801 -3.624042 0.660089 -4.631944 1.299556 0.897990 5.509689 0.736485 -0.029630 -0.057357 -0.003144 
11.271279 5.524113 83.096504 -7.478720 -1.105393 -103.894062 4.342419 -2.370966 -0.114493 1.939505 -1.052654 -0.055231 1.939504 -1.052655 -0.055229 1.454491 -0.789676 -0.038081 -3.878966 -14.852477 14.195192 -1.958477 8.109694 25.115007 9.177087 7.466581 -4.883495 56.327535 17.900114 0.097039 -11.022901 -24.677786 16.297021 -37.894296 14.265678 34.280156 -6.857305 4.762885 -12.463230 -74.595112 36.434900 -68.660763 -47.399293 24.498975 -71.174362 54.152195 50.332842 22.725014 -1.335300 -10.683605 -2.358136 1.234791 -3.029677 -1.734416 -1.117271 5.654183 -4.531598 -0.031608 0.001187 0.008328 -2.348331 -8.742913 -3.644215 0.652184 -4.556807 1.308851 0.886542 5.494509 0.733885 -0.029489 -0.056155 -0.002027 
11.290084 5.483383 83.093689 -7.433246 -1.095208 -103.898946 4.275859 -2.357913 -0.088410 1.909839 -1.046996 -0.042940 1.909841 -1.046996 -0.042940 1.432264 -0.785391 -0.028933 -3.762282 -14.791336 14.229832 -1.719403 8.197224 25.230210 9.178805 7.543608 -4.951902 56.115192 18.077030 -0.159170 -10.515773 -24.041919 16.179953 -35.770025 13.726000 33.764343 -6.828853 4.681240 -12.551186 -74.670346 36.825931 -68.845862 -47.365180 24.949634 -70.525904 52.045608 51.062938 23.032424 -1.301515 -10.696571 -2.363668 1.220013 -2.945644 -1.732041 -1.119830 5.639268 -4.540653 -0.035754 0.000661 0.008551 -2.319693 -8.751363 -3.656500 0.651458 -4.486593 1.323660 0.869551 5.479918 0.727614 -0.029690 -0.054464 -0.002360 
11.307445 5.441668 83.090752 -7.383953 -1.081290 -103.894451 4.210074 -2.347074 -0.062365 1.880835 -1.041852 -0.030691 1.880835 -1.041852 -0.030689 1.410535 -0.781493 -0.019809 -3.651261 -14.723105 14.257737 -1.491776 8.299276 25.331710 9.165988 7.585706 -5.008465 55.895540 18.235975 -0.360483 -9.958460 -23.285505 15.984004 -33.677713 13.112386 33.092400 -6.774822 4.653062 -12.585136 -74.724141 37.207220 -68.991584 -47.552013 25.513468 -69.849934 49.101076 52.090892 22.967227 -1.263773 -10.709865 -2.380214 1.198752 -2.852750 -1.736678 -1.119366 5.623132 -4.519262 -0.039737 -0.002093 0.008241 -2.287689 -8.752120 -3.663451 0.643075 -4.418136 1.310335 0.856992 5.462629 0.737538 -0.029139 -0.051970 -0.002622 
11.325436 5.397349 83.088028 -7.332602 -1.065086 -103.873455 4.143210 -2.330254 -0.043049 1.851648 -1.033803 -0.021871 1.851648 -1.033804 -0.021868 1.388660 -0.775427 -0.013268 -3.536843 -14.658100 14.282471 -1.259363 8.394869 25.428463 9.131994 7.646627 -5.102853 55.711531 18.241615 -0.487397 -9.515218 -22.598072 15.662283 -31.704188 12.435137 32.402960 -6.723189 4.706184 -12.547486 -74.734919 37.493647 -69.034470 -47.805594 26.118391 -69.192466 45.591496 52.961666 22.390940 -1.222559 -10.725509 -2.404577 1.176478 -2.756055 -1.748867 -1.117271 5.607236 -4.502759 -0.044703 -0.003633 0.006619 -2.249799 -8.753413 -3.666995 0.631963 -4.341896 1.291794 0.841258 5.441131 0.731724 -0.027558 -0.050303 -0.001127 
11.344184 5.352712 83.085205 -7.284965 -1.055663 -103.849768 4.077781 -2.302436 -0.023644 1.824485 -1.021258 -0.013214 1.824486 -1.021258 -0.013214 1.368307 -0.765992 -0.006861 -3.421757 -14.611257 14.305169 -1.029545 8.456966 25.519789 9.110493 7.644210 -5.163218 55.496059 18.263489 -0.605145 -9.068212 -21.803724 15.286249 -29.698632 11.715316 31.602800 -6.686115 4.690397 -12.555856 -74.675421 37.816859 -69.074113 -47.792541 26.800361 -68.426734 41.773160 53.674273 21.618654 -1.169233 -10.751358 -2.443601 1.146202 -2.652165 -1.758503 -1.111417 5.590048 -4.501457 -0.049697 -0.005047 0.005093 -2.208836 -8.760412 -3.663807 0.626964 -4.265334 1.273672 0.823237 5.418938 0.717028 -0.027138 -0.048516 -0.000457 
11.361247 5.305617 83.081833 -7.237429 -1.047355 -103.807086 4.006951 -2.271507 -0.000441 1.794533 -1.007607 -0.003451 1.794532 -1.007607 -0.003451 1.345858 -0.755722 0.000371 -3.305475 -14.573742 14.320496 -0.801723 8.502369 25.596843 9.104304 7.636385 -5.223735 55.237376 18.372802 -0.712701 -8.285915 -20.467850 14.795546 -27.583149 11.003952 30.646311 -6.640020 4.607941 -12.609358 -74.565093 38.181007 -69.167926 -47.485418 27.521098 -67.528953 37.944204 54.152001 20.764327 -1.111964 -10.779888 -2.485383 1.119867 -2.545174 -1.767185 -1.109245 5.571948 -4.513799 -0.054004 -0.005573 0.005503 -2.163408 -8.765067 -3.683991 0.623801 -4.190344 1.251524 0.803784 5.397973 0.712018 -0.027265 -0.049953 -0.000062 
